<?xml version="1.0" encoding="UTF-8" standalone="no"?>
<svg
   xmlns:dc="http://purl.org/dc/elements/1.1/"
   xmlns:cc="http://creativecommons.org/ns#"
   xmlns:rdf="http://www.w3.org/1999/02/22-rdf-syntax-ns#"
   xmlns:svg="http://www.w3.org/2000/svg"
   xmlns="http://www.w3.org/2000/svg"
   xmlns:sodipodi="http://sodipodi.sourceforge.net/DTD/sodipodi-0.dtd"
   xmlns:inkscape="http://www.inkscape.org/namespaces/inkscape"
   version="1.1"
   id="Ebene_1"
   x="0px"
   y="0px"
   viewBox="0 0 1024 1024"
   xml:space="preserve"
   sodipodi:docname="Extension.svg"
   width="1024"
   height="1024"
   inkscape:version="1.0.2 (e86c870879, 2021-01-15, custom)"><metadata
   id="metadata9975"><rdf:RDF><cc:Work
       rdf:about=""><dc:format>image/svg+xml</dc:format><dc:type
         rdf:resource="http://purl.org/dc/dcmitype/StillImage" /><dc:title></dc:title></cc:Work></rdf:RDF></metadata><defs
   id="defs9973" /><sodipodi:namedview
   pagecolor="#ffffff"
   bordercolor="#666666"
   borderopacity="1"
   objecttolerance="10"
   gridtolerance="10"
   guidetolerance="10"
   inkscape:pageopacity="0"
   inkscape:pageshadow="2"
   inkscape:window-width="2560"
   inkscape:window-height="1377"
   id="namedview9971"
   showgrid="false"
   showguides="true"
   inkscape:guide-bbox="true"
   inkscape:zoom="0.24088435"
   inkscape:cx="128.77517"
   inkscape:cy="42.084999"
   inkscape:window-x="-8"
   inkscape:window-y="-8"
   inkscape:window-maximized="1"
   inkscape:current-layer="Ebene_1"><sodipodi:guide
     position="146.03922,1256.6353"
     orientation="0,-1"
     id="guide10552" /><sodipodi:guide
     position="134.29737,863.28347"
     orientation="0,-1"
     id="guide10554" /></sodipodi:namedview>
<style
   type="text/css"
   id="style9948">
	.st0{fill:#ff8700;}
</style>
<g
   id="g9968"
   transform="matrix(12.033694,0,0,12.033694,12.000014,5.5018195)">
	<g
   id="g9960">
		
		
		
		
		
	</g>
	<g
   id="g9966">
		<path
   class="st0"
   d="m 32.94,8.72 c 0,-4.58 1.08,-6.1 2.61,-7.42 C 22.46,2.83 6.76,7.63 1.74,13.74 0.66,15.27 0,17.66 0,20.72 c 0,19.41 20.72,63.46 35.33,63.46 6.76,0 18.16,-11.11 27.54,-26.17 -1.25,0.37 -2.24,0.51 -3.55,0.51 C 48.63,58.51 32.94,21.15 32.94,8.72 Z"
   id="path9962" />
		<path
   class="st0"
   d="m 56.05,0 c -5.67,0 -7.85,1.09 -7.85,6.76 0,12.43 11.12,37.3 20.07,37.3 C 73.28,44.06 83.1,25.3 83.1,9.81 83.1,2.18 69.57,0 56.05,0 Z"
   id="path9964" />
	</g>
</g>
<path
   style="fill:#000000;fill-opacity:1;stroke:#000000;stroke-width:1.2679px;stroke-linecap:butt;stroke-linejoin:miter;stroke-opacity:1"
   d="M 596.14562,519.13214 752.46465,1017.8642 H 853.88589 L 1011.1354,519.13214 H 919.94935 L 806.43194,941.56564 689.1926,519.13214 Z"
   id="path10556"
   sodipodi:nodetypes="cccccccc" /></svg>
